PathFileType	4	(X/Y/Z)	C:/Users/opensim2020/Desktop/walking_exp_matlab/subject02_walking07_straight_03.trc																																																																																																																																																				
DataRate	CameraRate	NumFrames	NumMarkers	Units	OrigDataRate	OrigDataStartFrame	OrigNumFrames																																																																																																																																																
100	100	7	50	mm	100	1993	203																																																																																																																																																
Frame#	Time	LFHD			RFHD			LBHD			RBHD			C7			T10			CLAV			STRN			RBAK			LSHO			LUPA			LELB			LFRM			LWRA			LWRB			LFIN			RSHO			RUPA			RELB			RFRM			RWRA			RWRB			RFIN			LASI			RASI			LPSI			RPSI			LTHI			LKNE			LTIB			LANK			LHEE			LTOE			RTHI			RKNE			RTIB			RANK			RHEE			RTOE			*39			*40			*41			*42			*43			*44			*45			*46			*47			*48			*49		
		X1	Y1	Z1	X2	Y2	Z2	X3	Y3	Z3	X4	Y4	Z4	X5	Y5	Z5	X6	Y6	Z6	X7	Y7	Z7	X8	Y8	Z8	X9	Y9	Z9	X10	Y10	Z10	X11	Y11	Z11	X12	Y12	Z12	X13	Y13	Z13	X14	Y14	Z14	X15	Y15	Z15	X16	Y16	Z16	X17	Y17	Z17	X18	Y18	Z18	X19	Y19	Z19	X20	Y20	Z20	X21	Y21	Z21	X22	Y22	Z22	X23	Y23	Z23	X24	Y24	Z24	X25	Y25	Z25	X26	Y26	Z26	X27	Y27	Z27	X28	Y28	Z28	X29	Y29	Z29	X30	Y30	Z30	X31	Y31	Z31	X32	Y32	Z32	X33	Y33	Z33	X34	Y34	Z34	X35	Y35	Z35	X36	Y36	Z36	X37	Y37	Z37	X38	Y38	Z38	X39	Y39	Z39	X40	Y40	Z40	X41	Y41	Z41	X42	Y42	Z42	X43	Y43	Z43	X44	Y44	Z44	X45	Y45	Z45	X46	Y46	Z46	X47	Y47	Z47	X48	Y48	Z48	X49	Y49	Z49	X50	Y50	Z50
																																																																																																																																																							
1	0	-790.73175	1756.26624	1388.27991	-786.79401	1737.0946	1531.23035	-902.28412	1655.4613	1379.60657	-910.2486	1632.17468	1520.83777	-940.68573	1526.59473	1456.21814	-1006.26788	1259.31323	1474.57605	-804.26453	1456.46021	1433.18665	-761.0379	1280.51575	1446.51672	-997.99017	1363.77856	1534.74683	-889.31403	1497.52026	1271.64819	-950.51477	1311.57996	1188.07361	-988.86859	1179.88818	1170.75073	-1023.68573	1056.99902	1138.80957	-1003.04517	919.15857	1131.35095	-1054.89001	938.82141	1118.53101	-1055.51428	874.71051	1098.57373	-841.00269	1498.34485	1632.84302	-829.23395	1316.02393	1734.13123	-774.90424	1180.82202	1765.24683	-706.62958	1081.6073	1783.81616	-623.34015	975.70563	1760.4115	-658.72821	961.76996	1803.05396	-602.25018	915.3252	1800.29993	-797.67242	988.64435	1336.00879	-790.90961	972.54102	1591.35547	-1001.86188	1038.30664	1419.11304	-1001.89001	1040.18018	1534.31824	-793.28333	688.12897	1268.49512	-755.30731	496.12769	1298.61121	-819.7547	315.32831	1307.85535	-823.54578	91.90018	1336.67041	-850.052	65.17605	1394.35254	-679.06165	49.65776	1304.53931	-885.43854	670.98724	1652.88538	-900.99323	461.49438	1610.40894	-955.55023	279.60318	1613.87317	-985.00024	87.87148	1573.17346	-1018.32971	32.89806	1515.56274	-837.16565	32.78542	1602.21082	-903.59955	1798.03271	1479.08496	2845.83691	1034.02332	-3356.96533	NaN	NaN	NaN	NaN	NaN	NaN	NaN	NaN	NaN	NaN	NaN	NaN	NaN	NaN	NaN	NaN	NaN	NaN	NaN	NaN	NaN	NaN	NaN	NaN	NaN	NaN	NaN
2	0.01	-783.64746	1755.7124	1388.17126	-779.39807	1736.90845	1531.07593	-895.17523	1654.79236	1379.97119	-902.69928	1631.72974	1521.25867	-933.1283	1526.06128	1456.7301	-998.7738	1258.81726	1474.92371	-796.71014	1455.94849	1433.62415	-753.14087	1280.16882	1447.44177	-990.72321	1363.57141	1535.5376	-882.04895	1496.76501	1272.21924	-944.58716	1311.29138	1189.19153	-983.98761	1179.77441	1172.3092	-1019.50665	1056.88611	1140.81372	-1000.54156	919.03424	1132.92407	-1052.26624	939.20929	1120.70325	-1053.49939	874.98279	1100.95105	-833.21637	1498.01038	1633.19141	-820.2923	1316.07397	1734.71155	-764.41327	1181.22729	1765.66663	-694.58179	1082.85083	1783.41418	-609.84607	978.37622	1758.94971	-644.81561	963.75018	1801.82092	-587.52484	918.38525	1798.63232	-789.71906	988.2641	1336.17041	-784.06995	971.65485	1591.76196	-994.22302	1037.60742	1419.16077	-994.59583	1039.57861	1534.28015	-784.83514	687.97186	1268.78223	-746.2041	495.31909	1299.09485	-801.24066	310.90265	1306.21167	-793.44281	87.2398	1333.12634	-819.16724	59.09114	1390.34045	-646.94147	51.79	1301.33533	-880.56006	670.41241	1652.77478	-898.13983	460.80112	1610.04199	-954.10767	279.66876	1613.70081	-984.69171	87.97623	1572.90137	-1018.21277	32.99731	1515.34241	-837.20538	32.85364	1602.42676	-896.39435	1797.39087	1479.08203	NaN	NaN	NaN	NaN	NaN	NaN	NaN	NaN	NaN	NaN	NaN	NaN	NaN	NaN	NaN	NaN	NaN	NaN	NaN	NaN	NaN	NaN	NaN	NaN	NaN	NaN	NaN	NaN	NaN	NaN
3	0.02	-776.67395	1755.08691	1387.94861	-771.99042	1736.52588	1530.88843	-887.94781	1653.89832	1380.21777	-895.18427	1631.18372	1521.53772	-925.48022	1525.41357	1457.11707	-991.24854	1258.22168	1475.05872	-788.97229	1455.3606	1434.0741	-745.60577	1279.39258	1447.91699	-982.77979	1362.79443	1535.84656	-874.63092	1495.85205	1272.61987	-938.23218	1310.60876	1190.39343	-978.6535	1179.36719	1173.875	-1015.37909	1056.81055	1142.73767	-997.36621	918.82483	1134.94458	-1049.1554	939.32849	1122.94617	-1051.19983	875.03583	1103.42053	-825.55206	1497.76257	1633.46484	-811.51495	1316.07153	1735.21118	-754.07056	1181.60046	1766.03247	-682.77417	1084.25354	1782.93713	-596.75458	981.03253	1757.48523	-631.12408	965.58966	1800.50439	-573.09497	921.27411	1796.74487	-781.63611	987.67407	1336.27197	-776.99396	970.883	1592.16467	-986.49158	1036.80603	1419.09106	-987.3031	1038.79785	1534.09412	-776.7561	687.41565	1268.9436	-737.28448	494.29263	1299.30688	-782.51477	306.59421	1304.22754	-763.57367	83.55683	1329.45923	-788.41418	54.17847	1386.44946	-615.02869	54.68456	1298.57434	-875.86713	669.90759	1652.9679	-894.90076	460.49225	1610.01477	-952.68036	279.72098	1613.49634	-984.4353	88.14237	1572.60986	-1018.13507	33.11704	1515.11414	-837.28094	32.73395	1602.58972	-889.14349	1796.79138	1478.96594	NaN	NaN	NaN	NaN	NaN	NaN	NaN	NaN	NaN	NaN	NaN	NaN	NaN	NaN	NaN	NaN	NaN	NaN	NaN	NaN	NaN	NaN	NaN	NaN	NaN	NaN	NaN	NaN	NaN	NaN
4	0.03	-769.54474	1754.22693	1387.6825	-764.56293	1736.03516	1530.61572	-880.58746	1652.83569	1380.30188	-887.53888	1630.45837	1521.68909	-917.93384	1524.79932	1457.42822	-983.6463	1257.42334	1475.03699	-781.17755	1454.52344	1434.33435	-737.82324	1278.56445	1448.40698	-975.34271	1362.25671	1536.20374	-867.04877	1494.7793	1272.89368	-931.47321	1309.69543	1191.44177	-973.06641	1178.82617	1175.31165	-1010.80975	1056.47046	1144.64624	-994.05634	918.30127	1137.02087	-1045.96362	939.45557	1125.1543	-1048.66809	874.92126	1105.89453	-817.987	1497.40222	1633.7583	-802.80432	1315.82056	1735.59277	-743.93494	1181.79358	1766.27954	-671.22052	1085.30859	1782.50757	-583.90875	983.36316	1755.79089	-617.6637	967.41528	1799.11951	-558.95612	924.12433	1794.85388	-773.35773	987.11359	1336.4314	-769.80145	970.11847	1592.40979	-978.63666	1035.80627	1418.86572	-980.01404	1037.87097	1533.75647	-768.12244	686.242	1268.89612	-728.44489	493.12787	1299.25818	-764.05371	302.96277	1301.81287	-734.17926	81.04056	1325.62927	-758.18744	50.42042	1382.23914	-583.77478	58.2908	1296.15295	-870.89709	669.16406	1652.75061	-891.75861	460.12112	1610.09094	-951.13647	279.75436	1613.27051	-984.16241	88.30678	1572.35608	-1017.90643	33.05538	1514.83777	-837.24176	32.61688	1602.80212	-881.94196	1795.83179	1478.7616	NaN	NaN	NaN	NaN	NaN	NaN	NaN	NaN	NaN	NaN	NaN	NaN	NaN	NaN	NaN	NaN	NaN	NaN	NaN	NaN	NaN	NaN	NaN	NaN	NaN	NaN	NaN	NaN	NaN	NaN
5	0.04	-762.44745	1753.34253	1387.18628	-757.08966	1735.34949	1530.20386	-873.25372	1651.68884	1380.29944	-879.83942	1629.49878	1521.7207	-909.98285	1523.69006	1457.40491	-975.98309	1256.5564	1474.81506	-773.35413	1453.59485	1434.47607	-729.84906	1277.65601	1448.8739	-967.33582	1361.22852	1536.19141	-859.27795	1493.59265	1273.07129	-925.21381	1308.93115	1192.14819	-967.64685	1178.20544	1176.54639	-1005.92371	1056.04492	1146.56873	-990.65393	917.65582	1138.92761	-1041.94177	938.96057	1127.34485	-1045.57288	874.65759	1108.49683	-810.19397	1496.66907	1633.70313	-794.14246	1315.42981	1735.65747	-733.9007	1181.76929	1766.3866	-659.70862	1086.27588	1781.75537	-571.07422	985.85059	1754.41821	-604.40094	968.98096	1797.67969	-544.99933	926.88483	1792.94531	-765.00482	986.09485	1336.35193	-762.73297	969.56006	1592.55237	-970.62836	1034.61011	1418.49597	-972.67023	1036.75	1533.23596	-760.90961	685.30347	1268.91174	-719.57684	492.02365	1298.82446	-745.70898	300.00613	1299.10779	-705.18335	79.47804	1321.88611	-728.68042	47.72935	1378.02209	-553.4375	62.54568	1294.31152	-866.02661	668.57452	1652.69336	-888.55005	459.21707	1609.29883	-949.45917	279.76224	1613.06421	-983.86383	88.34531	1572.09717	-1017.71484	33.1512	1514.61438	-837.25897	32.53159	1602.98938	-874.75812	1794.86804	1478.52917	2845.84814	1033.91455	-3356.77515	NaN	NaN	NaN	NaN	NaN	NaN	NaN	NaN	NaN	NaN	NaN	NaN	NaN	NaN	NaN	NaN	NaN	NaN	NaN	NaN	NaN	NaN	NaN	NaN	NaN	NaN	NaN
6	0.05	-755.14465	1752.30994	1386.82141	-749.61499	1734.57556	1529.7926	-865.88739	1650.48767	1380.1748	-872.12909	1628.43372	1521.64038	-902.16479	1522.60449	1457.28296	-968.27454	1255.56873	1474.37854	-765.37958	1452.59302	1434.5332	-721.75775	1276.74329	1449.38074	-960.07111	1360.70972	1536.38464	-851.35956	1492.31763	1273.04895	-918.39368	1307.56445	1192.80603	-961.66321	1177.32361	1177.78955	-1000.96881	1055.3783	1148.27051	-986.64868	916.67877	1141.0802	-1037.93567	938.50848	1129.52869	-1042.22437	874.1651	1111.10706	-802.37299	1495.88562	1633.69385	-785.69189	1314.61841	1735.49438	-724.02527	1181.6676	1766.39478	-648.4826	1087.02832	1780.92175	-558.62683	987.84619	1752.7666	-591.52979	970.45807	1796.10242	-531.53729	929.28796	1790.90295	-756.39355	985.11316	1336.42712	-755.37592	969.07184	1592.71326	-962.46844	1033.35046	1417.94617	-965.23602	1035.41907	1532.47461	-753.1579	683.77893	1268.80688	-710.58936	490.97946	1297.93884	-727.66425	297.83963	1296.25378	-677.14221	79.01076	1318.02783	-700.17102	46.17643	1373.65674	-524.04938	67.24184	1293.04602	-861.10437	667.9552	1652.55176	-885.23792	458.92932	1609.68665	-947.60284	279.77988	1612.76123	-983.54681	88.53893	1571.85706	-1017.578	33.33684	1514.35486	-837.31415	32.46418	1603.19641	-867.50757	1793.84302	1478.17639	NaN	NaN	NaN	NaN	NaN	NaN	NaN	NaN	NaN	NaN	NaN	NaN	NaN	NaN	NaN	NaN	NaN	NaN	NaN	NaN	NaN	NaN	NaN	NaN	NaN	NaN	NaN	NaN	NaN	NaN
7	0.06	-747.83179	1751.24792	1386.35645	-742.11621	1733.69092	1529.32092	-858.2403	1649.07373	1379.91064	-864.40546	1627.22693	1521.41626	-894.24347	1521.39172	1456.97717	-960.4491	1254.46118	1473.7384	-757.28528	1451.4751	1434.47107	-713.82043	1275.56848	1449.57849	-951.78149	1359.34509	1535.85925	-843.2511	1490.87341	1272.84912	-911.13214	1306.65735	1193.41553	-955.29022	1176.33325	1179.01172	-995.62555	1054.58008	1150.00818	-982.37592	915.64514	1143.15918	-1033.29297	937.85461	1131.82507	-1038.3125	873.28015	1113.78552	-794.71021	1495.0802	1633.47229	-777.11292	1314.14612	1735.54248	-714.3548	1181.39429	1766.28735	-637.49573	1087.60242	1780.09692	-546.54767	989.80042	1751.05249	-578.78625	971.75891	1794.56641	-518.25793	931.59802	1788.87659	-747.57281	984.03656	1336.58215	-747.67554	968.51874	1592.6178	-954.08374	1031.81934	1417.13708	-957.80682	1034.0083	1531.56531	-745.59644	682.12372	1268.41162	-701.54449	489.88699	1296.89148	-710.13177	296.31833	1293.53198	-650.51288	79.48864	1314.05847	-672.30194	45.03346	1369.34546	-495.76935	72.53495	1292.3363	-856.25397	667.43933	1652.59509	-881.96277	458.55051	1609.68958	-945.92914	279.81152	1612.61389	-983.28027	88.75169	1571.61731	-1017.49609	33.59451	1514.17188	-837.31366	32.47675	1603.42407	-860.112	1792.45215	1477.74097	2845.11084	1034.18628	-3360.20996	NaN	NaN	NaN	NaN	NaN	NaN	NaN	NaN	NaN	NaN	NaN	NaN	NaN	NaN	NaN	NaN	NaN	NaN	NaN	NaN	NaN	NaN	NaN	NaN	NaN	NaN	NaN
